<svg xmlns="http://www.w3.org/2000/svg" data-name="Layer 2" viewBox="0 0 333.84 167.64"><g data-name="Layer 1"><path fill="#f57f20" d="M130.21 153.74c-13.2 8.38-28.16 13.01-43.47 13.9V76.83l43.46 20.99v55.93Z"/><path fill="#01badd" d="M55.37 43.3c19.1-13.53 44.43-11.7 61.35 4.06 4.04 3.77 7.36 8.12 9.9 12.85l32.25-13.07a84.3 84.3 0 0 0-17.78-24.4C126.72 9.05 107.49 1.12 87.78.11 46.44-2 10.22 26.22 1.75 66.68c-5.95 28.43 3.52 58.33 24.75 78.48 13.22 12.17 29.86 19.95 47.76 22.1v-34.03c-21.45-4.69-36.97-22.33-39.45-43.91-.02-3.7-.33-7.18.07-10.93 1.51-14.04 8.88-26.87 20.49-35.09m105.24 50.17c-2.48 0-4.78-.44-6.9-1.33s-3.95-2.11-5.49-3.65a16.7 16.7 0 0 1-3.63-5.45c-.87-2.08-1.31-4.34-1.31-6.76s.44-4.67 1.31-6.76c.87-2.08 2.08-3.9 3.63-5.45s3.38-2.77 5.49-3.66 4.41-1.33 6.9-1.33 4.78.44 6.9 1.33c2.11.89 3.95 2.11 5.49 3.66a16.7 16.7 0 0 1 3.63 5.45c.87 2.08 1.31 4.34 1.31 6.76s-.44 4.67-1.31 6.76c-.87 2.08-2.08 3.9-3.63 5.45s-3.38 2.77-5.49 3.65-4.41 1.33-6.9 1.33m0-6.81c1.41 0 2.74-.25 3.98-.74s2.32-1.2 3.24-2.11 1.64-2.02 2.16-3.29.78-2.69.78-4.25-.26-2.98-.78-4.25-1.24-2.37-2.16-3.29-2-1.62-3.24-2.11-2.57-.74-3.98-.74-2.77.25-4 .74-2.3 1.2-3.22 2.11-1.64 2.02-2.16 3.29-.78 2.69-.78 4.25.26 2.98.78 4.25 1.24 2.37 2.16 3.29 1.99 1.62 3.22 2.11 2.56.74 4 .74m22.34 6.07V59.81h11.77c1.69 0 3.24.26 4.67.78s2.66 1.25 3.7 2.18c1.04.94 1.85 2.06 2.44 3.38.58 1.32.87 2.77.87 4.37s-.29 3.05-.87 4.37a9.8 9.8 0 0 1-2.44 3.38c-1.04.94-2.28 1.66-3.7 2.18s-2.98.78-4.67.78h-4.6v11.49h-7.17Zm12-18.3c1.5 0 2.62-.37 3.36-1.1.74-.74 1.1-1.67 1.1-2.8s-.37-2.07-1.1-2.8-1.85-1.1-3.36-1.1h-4.83v7.82h4.83Zm23.04-7.81v6.25h13.06v6.8h-13.06v6.25h14.53v6.8h-21.7V59.8h21.7v6.8h-14.53Zm20.22-6.81h8.28l11.86 20.32h.46l-.46-6.34V59.81h7.08v32.92h-7.54l-12.6-21.52h-.46l.46 6.34v15.17h-7.08V59.8Z"/><path fill="#f57f20" d="M173.8 129.4c-3.37 4.05-7.77 6.07-13.19 6.07-2.45 0-4.74-.44-6.85-1.33s-3.95-2.11-5.49-3.66a16.9 16.9 0 0 1-3.65-5.45c-.89-2.08-1.33-4.34-1.33-6.76s.44-4.67 1.33-6.76c.89-2.08 2.11-3.9 3.65-5.45 1.55-1.55 3.38-2.77 5.49-3.65s4.4-1.33 6.85-1.33c2.7 0 5.03.46 7.01 1.38s3.78 2.25 5.4 4l-5.01 4.87c-.86-.98-1.88-1.8-3.08-2.46s-2.62-.99-4.28-.99c-1.44 0-2.78.25-4.02.74a9.4 9.4 0 0 0-3.24 2.12c-.92.92-1.64 2.02-2.16 3.29s-.78 2.69-.78 4.25.26 2.98.78 4.25 1.24 2.37 2.16 3.29 2 1.62 3.24 2.12c1.24.49 2.58.74 4.02.74 1.75 0 3.26-.35 4.55-1.06s2.45-1.72 3.49-3.03l5.1 4.83Zm14.53-27.59h8.28l12.32 32.92h-7.91l-2.53-7.36h-12.04l-2.53 7.36h-7.91zm7.86 19.04-2.39-6.9-1.1-4.05h-.46l-1.1 4.05-2.39 6.9h7.45Zm16.6-19.04h7.08l9.38 16.09h.46l9.38-16.09h7.08v32.92h-7.08v-14.57l.46-5.52h-.46l-7.49 13.1h-4.23l-7.49-13.1h-.46l.46 5.52v14.57h-7.08v-32.92Zm40 32.92v-32.92h11.77c1.69 0 3.24.26 4.67.78 1.42.52 2.66 1.25 3.7 2.18a9.8 9.8 0 0 1 2.44 3.38c.58 1.32.87 2.77.87 4.37s-.29 3.05-.87 4.37a9.7 9.7 0 0 1-2.44 3.38c-1.04.94-2.28 1.66-3.7 2.18-1.43.52-2.98.78-4.67.78h-4.6v11.49h-7.17Zm12-18.3c1.5 0 2.62-.37 3.36-1.1.74-.74 1.1-1.67 1.1-2.8s-.37-2.07-1.1-2.8c-.73-.74-1.85-1.1-3.36-1.1h-4.83v7.82h4.83Zm28.22 19.04c-1.99 0-3.8-.31-5.42-.94s-3-1.55-4.14-2.78c-1.13-1.23-2.01-2.72-2.62-4.48s-.92-3.78-.92-6.05v-19.4h7.17v19.86c0 2.02.51 3.69 1.52 5.01q1.515 1.98 4.41 1.98c2.895 0 3.4-.66 4.41-1.98s1.52-2.99 1.52-5.01v-19.86h7.17v19.4c0 2.08-.31 4-.92 5.75s-1.49 3.25-2.62 4.51-2.51 2.24-4.14 2.94c-1.62.71-3.43 1.06-5.42 1.06Zm29.43 0c-3.07 0-5.71-.82-7.93-2.46s-3.79-3.99-4.71-7.06l6.76-2.67c.4 1.56 1.06 2.85 1.98 3.86s2.22 1.52 3.91 1.52q.825 0 1.59-.18c.51-.12.95-.31 1.33-.57s.7-.59.94-.99.37-.86.37-1.38-.1-1-.3-1.45-.53-.86-.99-1.24-1.07-.77-1.84-1.15-1.73-.79-2.9-1.22l-2.02-.74q-1.29-.465-2.64-1.26-1.35-.81-2.46-1.95a9.6 9.6 0 0 1-1.79-2.64q-.69-1.5-.69-3.33 0-1.98.78-3.72a8.8 8.8 0 0 1 2.21-3.01c.95-.84 2.1-1.51 3.45-2s2.83-.74 4.46-.74c1.72 0 3.19.22 4.41.67 1.23.44 2.27 1.01 3.13 1.7s1.54 1.46 2.05 2.32.9 1.69 1.17 2.48l-6.21 2.62c-.34-.98-.87-1.77-1.61-2.37s-1.69-.9-2.85-.9c-1.23 0-2.2.25-2.92.76q-1.08.765-1.08 1.95c0 1.185.37 1.56 1.1 2.21.74.64 2.04 1.29 3.91 1.93l2.02.69c2.79.95 4.95 2.22 6.48 3.82 1.53 1.59 2.3 3.74 2.3 6.44 0 1.72-.34 3.2-1.03 4.46s-1.58 2.3-2.67 3.13-2.31 1.45-3.68 1.86c-1.36.41-2.71.62-4.02.62Z"/><path fill="#231f20" d="M150.18 152.29c0 .84-.31 1.52-.93 2.03q-.945.75-2.28.75c-.8 0-1.5-.23-2.11-.7s-1.03-1.1-1.26-1.91l1.18-.48c.08.29.19.55.34.78.14.23.31.43.5.6s.4.3.64.39c.23.09.48.14.74.14.56 0 1.03-.15 1.38-.44s.54-.68.54-1.16c0-.4-.15-.75-.44-1.03q-.42-.42-1.56-.81c-.77-.28-1.25-.47-1.44-.56-1.02-.52-1.53-1.29-1.53-2.3 0-.71.28-1.31.85-1.81s1.28-.75 2.11-.75c.73 0 1.37.19 1.91.56s.9.83 1.07 1.38l-1.16.48c-.11-.36-.32-.66-.64-.89-.32-.24-.71-.36-1.16-.36-.48 0-.89.13-1.22.4-.33.25-.5.58-.5.98 0 .33.13.62.39.86.29.24.91.53 1.87.86.98.33 1.67.74 2.09 1.22s.62 1.07.62 1.77m4.64-5.86v8.44h-1.24v-8.44h-2.69v-1.18h6.61v1.18h-2.69Zm7.32 8.65q-1.605 0-2.58-1.05c-.65-.69-.98-1.6-.98-2.74v-6.05h1.24v6.1c0 .79.21 1.41.62 1.87s.98.68 1.71.68 1.29-.23 1.71-.68c.41-.46.62-1.08.62-1.87v-6.1h1.24v6.05c0 1.17-.32 2.09-.97 2.77s-1.51 1.02-2.59 1.02Zm5.28-.22v-9.62h2.94c1.47 0 2.65.44 3.54 1.33s1.34 2.05 1.34 3.48-.45 2.6-1.34 3.49q-1.335 1.32-3.54 1.32zm1.24-8.43v7.25h1.71c1.12 0 2-.32 2.65-.96s.97-1.53.97-2.67-.32-2.01-.97-2.66c-.65-.64-1.53-.97-2.65-.97h-1.71Zm13.66-1.19v1.18h-4.38v3.05h3.95v1.16h-3.95v3.05h4.38v1.18h-5.62v-9.62zm2.91 9.62h-1.24v-9.62h1.5l4.68 7.48h.05l-.05-1.85v-5.63h1.24v9.62h-1.29l-4.89-7.85h-.05l.05 1.85v5.99Zm11.39-8.43v8.44h-1.24v-8.44h-2.69v-1.18h6.61v1.18h-2.69Zm11.19 8.65c-1.42 0-2.62-.48-3.57-1.44s-1.42-2.15-1.42-3.59.47-2.62 1.42-3.57c.95-.97 2.14-1.45 3.57-1.45s2.63.52 3.53 1.57l-.89.86c-.69-.83-1.57-1.25-2.65-1.25s-1.96.36-2.67 1.07-1.06 1.63-1.06 2.77.35 2.06 1.06 2.77c.72.72 1.61 1.07 2.67 1.07 1.12 0 2.09-.47 2.92-1.41l.9.87c-.46.55-1.02.97-1.68 1.27s-1.38.45-2.14.45Zm14.55-5.03c0 1.42-.47 2.62-1.42 3.57-.96.97-2.13 1.45-3.52 1.45s-2.57-.48-3.52-1.45c-.95-.96-1.42-2.15-1.42-3.57s.47-2.62 1.42-3.57c.95-.97 2.12-1.45 3.52-1.45s2.57.49 3.52 1.46c.95.96 1.42 2.14 1.42 3.56m-8.62 0c0 1.11.35 2.03 1.05 2.75.71.73 1.59 1.09 2.63 1.09s1.92-.36 2.62-1.09c.71-.72 1.06-1.63 1.06-2.75s-.35-2.04-1.06-2.75c-.7-.73-1.57-1.09-2.62-1.09s-1.93.36-2.63 1.09-1.05 1.64-1.05 2.75m11.32 4.81h-1.24v-9.62h1.24l3.35 5.86h.05l3.35-5.86h1.24v9.62h-1.24v-5.71l.05-1.61h-.05l-3.01 5.28h-.73l-3.01-5.28h-.05l.05 1.61zm11.16-3.89v3.9h-1.24v-9.62h3.28c.83 0 1.54.28 2.12.83.59.56.89 1.23.89 2.03s-.3 1.5-.89 2.04c-.57.55-1.28.82-2.12.82zm0-4.54v3.36h2.07c.49 0 .9-.17 1.22-.5.33-.33.5-.73.5-1.18s-.17-.84-.5-1.17c-.32-.34-.73-.51-1.22-.51zm5.96 8.43h-1.37l3.63-9.62h1.4l3.63 9.62h-1.37l-.93-2.61h-4.04l-.94 2.61Zm2.93-8.1-1.57 4.34h3.2l-1.57-4.34h-.05Zm6.72 8.1h-1.24v-9.62h1.5l4.67 7.48h.05l-.05-1.85v-5.63H258v9.62h-1.29l-4.89-7.85h-.05l.05 1.85v5.99Zm9.35 0h-1.24v-9.62h1.24zm11.22-4.81c0 1.42-.47 2.62-1.42 3.57-.96.97-2.13 1.45-3.52 1.45s-2.57-.48-3.52-1.45c-.95-.96-1.42-2.15-1.42-3.57s.47-2.62 1.42-3.57c.95-.97 2.12-1.45 3.52-1.45s2.57.49 3.52 1.46c.95.96 1.42 2.14 1.42 3.56m-8.63 0c0 1.11.35 2.03 1.05 2.75.71.73 1.58 1.09 2.63 1.09s1.92-.36 2.62-1.09c.71-.72 1.06-1.63 1.06-2.75s-.35-2.04-1.06-2.75c-.7-.73-1.57-1.09-2.62-1.09s-1.93.36-2.63 1.09-1.05 1.64-1.05 2.75m11.33 4.81h-1.24v-9.62h1.5l4.67 7.48h.05l-.05-1.85v-5.63h1.24v9.62h-1.29l-4.89-7.85h-.05l.05 1.85v5.99Zm12.31-4.12v4.12h-1.24v-9.62h5.62v1.18h-4.38v3.16h3.95v1.16zm15.06-.69c0 1.42-.47 2.62-1.42 3.57-.96.97-2.13 1.45-3.52 1.45s-2.57-.48-3.52-1.45c-.95-.96-1.42-2.15-1.42-3.57s.47-2.62 1.42-3.57c.95-.97 2.12-1.45 3.52-1.45s2.57.49 3.52 1.46c.95.96 1.42 2.14 1.42 3.56m-8.63 0c0 1.11.35 2.03 1.05 2.75.71.73 1.58 1.09 2.63 1.09s1.92-.36 2.62-1.09c.71-.72 1.06-1.63 1.06-2.75s-.35-2.04-1.06-2.75c-.7-.73-1.57-1.09-2.62-1.09s-1.93.36-2.63 1.09-1.05 1.64-1.05 2.75m11.33 4.81h-1.24v-9.62h3.28c.83 0 1.54.28 2.13.83s.88 1.23.88 2.04c0 .66-.22 1.25-.65 1.77q-.645.765-1.65.99l-.03.04 2.7 3.91v.05h-1.46l-2.59-3.9h-1.37v3.9Zm0-8.43v3.39h1.99c.5 0 .93-.16 1.28-.49s.52-.73.52-1.22c0-.45-.16-.84-.49-1.18s-.74-.5-1.23-.5zm12.56 8.65q-1.605 0-2.58-1.05c-.65-.69-.98-1.6-.98-2.74v-6.05h1.24v6.1c0 .79.21 1.41.62 1.87s.98.68 1.71.68 1.29-.23 1.71-.68.62-1.08.62-1.87v-6.1h1.24v6.05c0 1.17-.32 2.09-.97 2.77s-1.51 1.02-2.59 1.02Zm6.52-.22h-1.24v-9.62h1.24zm5.28.22q-1.605 0-2.58-1.05c-.65-.69-.98-1.6-.98-2.74v-6.05h1.24v6.1c0 .79.21 1.41.62 1.87s.98.68 1.71.68 1.29-.23 1.71-.68.62-1.08.62-1.87v-6.1h1.24v6.05c0 1.17-.32 2.09-.97 2.77s-1.51 1.02-2.59 1.02Z"/></g></svg>