<svg xmlns="http://www.w3.org/2000/svg" data-name="Layer 2" viewBox="0 0 158.87 167.64"><g data-name="Layer 1"><path d="M130.21 153.74c-13.2 8.38-28.16 13.01-43.47 13.9V76.83l43.46 20.99v55.93Z" style="fill:#f57f20"/><path d="M55.37 43.3c19.1-13.53 44.43-11.7 61.35 4.06 4.04 3.77 7.36 8.12 9.9 12.85l32.25-13.07a84.3 84.3 0 0 0-17.78-24.4C126.72 9.05 107.49 1.12 87.78.11 46.44-2 10.22 26.22 1.75 66.68c-5.95 28.43 3.52 58.33 24.75 78.48 13.22 12.17 29.86 19.95 47.76 22.1v-34.03c-21.45-4.69-36.97-22.33-39.45-43.91-.02-3.7-.33-7.18.07-10.93 1.51-14.04 8.88-26.87 20.49-35.09" style="fill:#01badd"/></g></svg>